<svg fill="none" height="16" viewBox="0 0 16 16" width="16" xmlns="http://www.w3.org/2000/svg"><g fill="#212121"><path d="m11.4889 4.1048c.058-.26998-.1138-.53588-.3838-.5939s-.5359.1138-.5939.38378c-.0709.32989-.1326.6485-.1858.95604-.44196.01686-.87766.01206-1.29127-.01623-.27549-.01884-.5141.18922-.53295.46472-.01884.2755.18923.51411.46472.53295.39024.02669.79691.03419 1.2095.02379-.05.40252-.0848.78313-.1066 1.14245-.90669.42396-1.5104 1.02621-1.82969 1.67299-.39585.80187-.35965 1.72491.20046 2.29831.37839.3867.92317.4287 1.39758.3228.21435-.0479.43345-.1287.65085-.2387.0145.0418.0291.0821.0436.121.0966.2588.3846.3902.6433.2936.2587-.0965.3901-.3845.2936-.6432-.04-.1072-.0812-.2306-.1215-.3708.7159-.65007 1.3382-1.6425 1.5633-2.91497.1035.02595.1985.05837.2851.09582.4405.19041.7056.52655.8086.91487.2054.77448-.2253 1.92248-1.6835 2.48318-.2578.0991-.3864.3884-.2872.6461.0991.2578.3883.3864.6461.2873 1.8341-.7053 2.6534-2.30726 2.2911-3.67298-.1808-.68179-.654-1.2633-1.3783-1.57637-.1843-.07968-.382-.14089-.5924-.18249l.0001-.03486c0-.27614-.2238-.5-.5-.5-.27 0-.49.21402-.4996.48167-.2857.02112-.5868.07111-.9019.15177.0232-.26678.0539-.54601.0931-.83799.662-.0618 1.3172-.16643 1.9229-.30871.2688-.06315.4355-.33227.3724-.6011-.0632-.26882-.3323-.43555-.6011-.3724-.4836.1136-1.0028.20138-1.5306.26026.0401-.21689.0846-.43976.1338-.6687zm-2.3531 5.00925c.15755-.31914.44541-.66394.9057-.96179.012.75092.084 1.38224.1841 1.90284-.2192.1358-.42754.2215-.60642.2614-.29825.0666-.42502-.0055-.46454-.0459-.17634-.1805-.28894-.6094-.01884-1.15655zm2.7646-1.61815c-.1457.70558-.4382 1.29049-.7886 1.7435-.0515-.44116-.0804-.95598-.0699-1.5494.0396-.01271.0799-.02511.1209-.03719.2665-.07859.5122-.12928.7376-.15691z"/><path d="m5.49454 4.79659c-.75469-.22141-1.43562-.15532-1.92237-.0371-.2439.05924-.44252.13233-.58252.19188-.07016.02984-.12611.05649-.1662.07664-.02006.01008-.0362.01857-.04822.02504l-.01493.00816-.00511.00286-.00196.00111-.00156.00089c-.23964.13721-.32267.44271-.18546.68235.13677.23887.44074.32213.68003.18678l.00311-.00169c.00408-.0022.01188-.00633.02322-.01203.02271-.01141.05937-.02901.10845-.04988.09849-.04189.2449-.09609.42716-.14036.36557-.08879.86147-.1345 1.40484.02491.40502.11883.57745.34059.67229.60942.07832.22201.10332.47643.11122.75491-.19195-.03658-.41698-.07285-.65949-.09906-.68892-.07445-1.65552-.08484-2.36376.34908-1.46009.89456-1.24704 3.1786.45423 3.7012.76153.2339 1.50027.0539 2.07087-.1868.17729-.0748.34643-.1594.50174-.2442v.3553c0 .2762.22386.5.5.5s.5-.2244.5-.5005l.00001-3.55801c.00012-.38017.0003-.91682-.17179-1.40462-.19174-.5435-.59248-1.01879-1.3338-1.23628zm.50558 3.34504v1.33362c-.24338.15559-.54107.34083-.8905.48828-.46851.19767-.94673.28797-1.38846.15227-.84141-.2585-.98413-1.42779-.22546-1.89261.40113-.24576 1.06735-.27959 1.7339-.20756.29716.03212.56738.082.77052.126z"/></g></svg>