<svg viewBox="0 0 64 64" xmlns="http://www.w3.org/2000/svg"><path d="m47.8 2-12.6 19h6.3l12.6-19z" fill="#428bc1"/><path d="m41.5 2-12.7 19h6.4l12.6-19z" fill="#e8e8e8"/><path d="m35.2 2-12.7 19h6.3l12.7-19z" fill="#ed4c5c"/><path d="m20.4 16.8c-.6 0-1.1.5-1.1 1.1v9.5c0 .6.5 1.1 1.1 1.1h23.2c.6 0 1.1-.5 1.1-1.1v-9.5c0-.6-.5-1.1-1.1-1.1zm22.1 7.3c0 .6-.5 1.1-1.1 1.1h-19c-.6 0-1.1-.5-1.1-1.1v-4.2c0-.6.5-1.1 1.1-1.1h19c.6 0 1.1.5 1.1 1.1z" fill="#ffc200"/><path d="m22.5 21h6.3l-12.6-19h-6.3z" fill="#ed4c5c"/><path d="m28.8 21h6.4l-12.7-19h-6.3z" fill="#e8e8e8"/><path d="m33.1 5.2-3.2 4.7 7.4 11.1h4.2l1-1.6z" fill="#3e4347" opacity=".5"/><path d="m35.2 21h6.3l-12.7-19h-6.3z" fill="#428bc1"/><circle cx="32" cy="42.3" fill="#ffc200" r="19.7"/><path d="m32.3 24.4c-10.1 0-18.2 8.2-18.2 18.2 0 3 .7 5.8 2 8.3-.6-2-1-4.1-1-6.3 0-10.7 8.2-19.4 18.7-20.2z" fill="#e68a00"/><path d="m46 31c5.1 9 2.5 20.6-6.4 26.5-1.8 1.2-3.8 2.1-5.8 2.7 2.8-.3 5.5-1.3 8-3 8.4-5.6 10.6-16.8 5.1-25z" fill="#ffe394"/><path d="m32 34.3v-6.4l-3.2 10 1.4 1.8z" fill="#f2b200"/><path d="m33.8 39.7 1.4-1.8-3.2-10v6.4z" fill="#e68a00"/><path d="m34.8 43 2.4 1.1 8.5-6.2-6.3 1.8z" fill="#c47500"/><path d="m39.4 39.7 6.3-1.8h-10.5l-1.4 1.8z" fill="#ffe394"/><path d="m30.2 39.7-1.4-1.8h-10.5l6.3 1.8z" fill="#ffd252"/><path d="m24.6 39.7-6.3-1.8 8.4 6.2 2.5-1.1z" fill="#ffdb75"/><path d="m34.8 43 1.8 5.4 3.9 5.7-3.3-10z" fill="#e68a00"/><path d="m32 45.1v2.8l8.5 6.2-3.9-5.7zm-2.8-2.1-2.5 1.1-3.2 10 3.9-5.7z" fill="#f2b200"/><path d="m27.4 48.4-3.9 5.7 8.5-6.2v-2.8z" fill="#e68a00"/><path d="m33.8 39.7-1.8-5.4-1.8 5.4h-5.6l4.6 3.3-1.8 5.4 4.6-3.3 4.6 3.3-1.8-5.4 4.6-3.3z" fill="#ffce31"/></svg>