<svg xmlns="http://www.w3.org/2000/svg" viewBox="0 0 64 64" id="language">
  <rect width="34" height="33" x="28" y="22" fill="#fff"></rect>
  <rect width="34" height="33" x="2" y="8" fill="#81d4fa"></rect>
  <polygon fill="#81d4fa" points="28 55 36 41 28 41 28 55"></polygon>
  <path d="M26,22.5a2,2,0,0,0,0-4H19v-2a2,2,0,0,0-4,0v2H8a2,2,0,0,0,0,4H20.396a14.8183,14.8183,0,0,1-3.38532,5.50269,13.93084,13.93084,0,0,1-2.48724-3.42505,1.99982,1.99982,0,1,0-3.54883,1.84472,18.53078,18.53078,0,0,0,2.695,3.908A13.33728,13.33728,0,0,1,8,31.5a2,2,0,0,0,0,4,16.74023,16.74023,0,0,0,8.96918-2.40607A16.71741,16.71741,0,0,0,26,35.5a2,2,0,0,0,0-4,13.43052,13.43052,0,0,1-5.69482-1.17908A19.09386,19.09386,0,0,0,24.60339,22.5Z" opacity=".1"></path>
  <path d="M61.93,22H38.07a1.67869,1.67869,0,0,0-.07.5,2.00591,2.00591,0,0,0,2,2H58v29H29.45l6.29-11.01A2.2785,2.2785,0,0,0,36,41.5V8.5a1.67869,1.67869,0,0,0-.07-.5H2v2.5H32v29H2V41H28v2.5h2.55L28,47.97V55H62V22.5A1.67869,1.67869,0,0,0,61.93,22Z" opacity=".1"></path>
  <path d="M47,33.5a7.0077,7.0077,0,0,0-7,7v7a2,2,0,0,0,4,0v-2h6v2a2,2,0,0,0,4,0v-7A7.0077,7.0077,0,0,0,47,33.5Zm3,8H44v-1a3,3,0,0,1,6,0Z" opacity=".1"></path>
  <circle cx="47" cy="29.5" r="2" opacity=".1"></circle>
  <path fill="#4d4d4d" d="M28,35.5a2,2,0,1,0,0-4,13.43052,13.43052,0,0,1-5.69482-1.17908A19.09386,19.09386,0,0,0,26.60339,22.5H28a2,2,0,0,0,0-4H21v-2a2,2,0,1,0-4,0v2H10a2,2,0,0,0,0,4H22.396a14.81827,14.81827,0,0,1-3.38532,5.50268,13.93046,13.93046,0,0,1-2.48724-3.425,1.99983,1.99983,0,1,0-3.54883,1.84473,18.53078,18.53078,0,0,0,2.695,3.908A13.33728,13.33728,0,0,1,10,31.5a2,2,0,0,0,0,4,16.74023,16.74023,0,0,0,8.96918-2.40607A16.7175,16.7175,0,0,0,28,35.5Z"></path>
  <path fill="#4d4d4d" d="M62,20.5H42a2,2,0,0,0,0,4H60v29H31.44617l6.29016-11.00781A2.31134,2.31134,0,0,0,38,41.5V8.5a2.0001,2.0001,0,0,0-2-2H2a2.0001,2.0001,0,0,0-2,2v33a2.0001,2.0001,0,0,0,2,2H26v12a2.03222,2.03222,0,0,0,2.00177,2H62a2.0001,2.0001,0,0,0,2-2v-33A2.0001,2.0001,0,0,0,62,20.5ZM4,10.5H34v29H4Zm28.55383,33L30,47.96923V43.5Z"></path>
  <path fill="#4d4d4d" d="M42,40.5v7a2,2,0,0,0,4,0v-2h6v2a2,2,0,0,0,4,0v-7a7,7,0,0,0-14,0Zm7-3a3.00328,3.00328,0,0,1,3,3v1H46v-1A3.00328,3.00328,0,0,1,49,37.5Z"></path>
  <circle cx="49" cy="29.5" r="2" fill="#81d4fa"></circle>
</svg>
