<?xml version="1.0" encoding="UTF-8"?>
<svg version="1.1" xmlns="http://www.w3.org/2000/svg" width="2400" height="2400">
<path d="M0 0 C344.52 0 689.04 0 1044 0 C1044.33 90.75 1044.66 181.5 1045 275 C1104.13827729 350.64436354 1104.13827729 350.64436354 1176.29482651 407.06019402 C1180.56503215 410.12224178 1183.98178582 413.7109588 1187 418 C1185.02 418 1183.04 418 1181 418 C1180.91363281 419.0415625 1180.82726563 420.083125 1180.73828125 421.15625 C1178.19412736 448.38254174 1166.54589918 471.75135884 1146 490 C1124.39350675 507.57570207 1097.17166131 514.57401555 1069.66503906 511.76123047 C1062.95446834 510.85241377 1056.6197466 509.27340908 1050.26025391 506.93457031 C1049.27392975 506.57276672 1048.28760559 506.21096313 1047.27139282 505.8381958 C1046.52183319 505.56159119 1045.77227356 505.28498657 1045 505 C1044.94132526 556.81746308 1044.89340992 608.63492349 1044.90492249 660.4524231 C1044.90508971 661.21934949 1044.90525693 661.98627588 1044.90542922 662.77644246 C1044.90913032 679.44385719 1044.91483193 696.11127069 1044.92259431 712.77868401 C1044.9263888 720.95239076 1044.92974123 729.12609766 1044.93286133 737.29980469 C1044.93317934 738.11318636 1044.93349735 738.92656804 1044.933825 739.76459765 C1044.9439253 766.12823358 1044.92483537 792.49175016 1044.89060636 818.85536267 C1044.8555855 845.94763055 1044.85001673 873.0397487 1044.88150119 900.13202481 C1044.8859345 903.9586942 1044.89003116 907.78536387 1044.89392281 911.61203384 C1044.89469915 912.36517663 1044.89547549 913.11831941 1044.89627536 913.8942847 C1044.90790621 926.01742757 1044.88849396 938.1403315 1044.85746904 950.26343198 C1044.82694027 962.4515834 1044.82912492 974.63938149 1044.86465739 986.82752244 C1044.88300421 993.43136628 1044.88571958 1000.03453981 1044.84977531 1006.63834572 C1044.81718921 1012.68411679 1044.82602254 1018.72835886 1044.86784215 1024.77406003 C1044.87565337 1026.96130326 1044.8682456 1029.14866473 1044.84409653 1031.33578859 C1044.33548708 1044.73182944 1044.33548708 1044.73182944 1050.38114262 1056.17332649 C1051.8829846 1057.49315433 1053.41915578 1058.77590588 1055 1060 C1056.02325568 1061.02420341 1057.03307914 1062.06221015 1058.02197266 1063.11962891 C1059.32980713 1064.41006104 1059.32980713 1064.41006104 1060.6640625 1065.7265625 C1061.14523529 1066.20394867 1061.62640808 1066.68133484 1062.12216187 1067.17318726 C1063.62059402 1068.65969159 1065.12230985 1070.14280108 1066.625 1071.625 C1077.67955547 1082.52988063 1077.67955547 1082.52988063 1081.4609375 1086.9609375 C1086.30181577 1092.6253015 1091.7013401 1097.76914745 1097 1103 C1102.88944178 1108.81407415 1108.73723514 1114.59036757 1114.11328125 1120.890625 C1118.51047146 1125.80673828 1123.30739568 1130.36744729 1128 1135 C1133.88944178 1140.81407415 1139.73723514 1146.59036757 1145.11328125 1152.890625 C1149.51047146 1157.80673828 1154.30739568 1162.36744729 1159 1167 C1161.10723173 1169.08026532 1163.21191578 1171.16302146 1165.3125 1173.25 C1165.81346191 1173.74701416 1166.31442383 1174.24402832 1166.83056641 1174.75610352 C1170.28360802 1178.20972007 1173.51609414 1181.7869554 1176.59765625 1185.57421875 C1178.05337197 1187.27035197 1178.05337197 1187.27035197 1181 1188 C1182.93818042 1190.86850702 1184.49946106 1193.88349604 1186 1197 C1184.35 1197 1182.7 1197 1181 1197 C1181 1216.14 1181 1235.28 1181 1255 C1159.88 1255 1138.76 1255 1117 1255 C1117 1411.09 1117 1567.18 1117 1728 C1316.65 1728 1516.3 1728 1722 1728 C1722 1853.73 1722 1979.46 1722 2109 C930 2109 138 2109 -678 2109 C-678 1983.27 -678 1857.54 -678 1728 C-478.35 1728 -278.7 1728 -73 1728 C-73 1571.91 -73 1415.82 -73 1255 C-94.12 1255 -115.24 1255 -137 1255 C-137 1235.86 -137 1216.72 -137 1197 C-138.65 1197 -140.3 1197 -142 1197 C-141.35330586 1195.65686601 -140.68096422 1194.32608822 -140 1193 C-139.566875 1192.154375 -139.13375 1191.30875 -138.6875 1190.4375 C-136.72109623 1187.597139 -134.98666093 1186.70188464 -132 1185 C-78.92748884 1152.43367314 -13.37710039 1104.28342569 2.14125061 1040.66575623 C10.77805802 1001.92721987 10.96663246 961.49606682 10.9140625 921.9921875 C10.91336577 920.47539922 10.9126775 918.95861094 10.91199768 917.44182265 C10.87701304 880.07581612 9.69081879 842.77015172 8.02177605 805.44511965 C6.93979954 781.2476312 6.18018129 757.06145313 5.71386719 732.84423828 C5.69826284 732.03960593 5.6826585 731.23497358 5.66658129 730.40595843 C5.51008678 722.32053257 5.35924841 714.23500929 5.21253979 706.14940027 C4.91393499 689.69934866 4.57775066 673.25013705 4.21859741 656.80130005 C4.1939341 655.66854323 4.1939341 655.66854323 4.16877255 654.51290243 C3.07892376 604.65427686 1.11240075 554.82469569 -1 505 C-2.01755371 505.34571045 -3.03510742 505.6914209 -4.08349609 506.04760742 C-5.43843049 506.50453118 -6.79341355 506.96131065 -8.1484375 507.41796875 C-8.81673584 507.645448 -9.48503418 507.87292725 -10.17358398 508.1072998 C-33.22968813 515.85612502 -59.74178316 513.32980903 -81.515625 502.78515625 C-104.73651242 490.8883563 -123.25698238 471.5648348 -131.81396484 446.62792969 C-134.73018633 437.23683492 -136.78331248 427.86913164 -137 418 C-138.65 418 -140.3 418 -142 418 C-139.57255978 412.04173763 -134.58850332 408.52285873 -129.31829834 405.16207886 C-72.69891519 368.31661299 -45.39320138 330.7824684 -1 275 C-0.505 138.875 -0.505 138.875 0 0 Z " fill="#4B2602" transform="translate(678,291)"/>
<path d="M0 0 C792 0 1584 0 2400 0 C2400 125.73 2400 251.46 2400 381 C1608 381 816 381 0 381 C0 255.27 0 129.54 0 0 Z " fill="#7379A0" transform="translate(0,2019)"/>
<path d="M0 0 C1.28626282 -0.03276535 1.28626282 -0.03276535 2.59851074 -0.06619263 C4.41740224 -0.10330739 6.23649936 -0.13129383 8.05566406 -0.15087891 C10.80935 -0.19476427 13.55343031 -0.31339319 16.3046875 -0.43359375 C30.81695462 -0.77446902 30.81695462 -0.77446902 36.44775391 4.49740601 C38.54873394 6.78388924 40.42951929 9.23647584 42.34375 11.6796875 C64.37654095 30.37338525 92.47199035 34.55182834 120.34375 32.6796875 C139.87275076 29.97240531 157.88508133 19.78046533 172.34375 6.6796875 C173.03895752 5.65166016 173.73416504 4.62363281 174.45043945 3.56445312 C176.65023852 0.90578976 178.15354138 0.21983952 181.57983398 -0.11254883 C183.24925246 -0.15868751 184.91988111 -0.16999647 186.58984375 -0.15234375 C187.47857681 -0.16045578 188.36730988 -0.16856781 189.28297424 -0.17692566 C191.15812411 -0.18537112 193.03339694 -0.17855677 194.90844727 -0.1574707 C197.77015473 -0.13290773 200.62508526 -0.17755828 203.48632812 -0.22851562 C205.31250565 -0.22814509 207.13868777 -0.22372198 208.96484375 -0.21484375 C209.81501572 -0.23215042 210.66518768 -0.24945709 211.54112244 -0.26728821 C215.05524179 -0.18498018 217.40809244 -0.10805751 220.15925598 2.20819092 C221.75292969 4.07592773 221.75292969 4.07592773 223.08441162 5.93040466 C234.29419007 21.50133729 259.43942294 30.01364424 277.37109375 33.01953125 C301.95945166 36.3620827 328.19127222 30.26053319 348.34375 15.6796875 C356.64905047 9.45984974 356.64905047 9.45984974 363.34375 1.6796875 C366.43190959 1.30077221 369.31228718 1.11518783 372.41015625 1.0703125 C373.77224464 1.04466217 373.77224464 1.04466217 375.16184998 1.01849365 C377.08931983 0.99011464 379.01693589 0.97053004 380.94458008 0.95898438 C383.87261106 0.93002026 386.7941726 0.83711002 389.72070312 0.7421875 C403.40923629 0.50921403 403.40923629 0.50921403 408.4777832 3.57592773 C410.69017652 5.82499696 412.50622151 8.1216624 414.34375 10.6796875 C425.7434122 20.91618899 441.62783482 28.09963131 456.34375 31.6796875 C457.25769531 31.90398438 458.17164063 32.12828125 459.11328125 32.359375 C483.58815216 37.35704095 510.39143576 32.2370673 531.34375 18.6796875 C539.10715095 13.38212409 539.10715095 13.38212409 545.85472107 6.92504883 C548.85887706 3.46595843 551.08890719 1.28032102 555.7434082 0.72631836 C557.37601896 0.66054491 559.01062301 0.63515631 560.64453125 0.64453125 C561.52094772 0.63071915 562.3973642 0.61690704 563.30033875 0.60267639 C565.14667295 0.58484629 566.99325998 0.5850364 568.83959961 0.60229492 C571.64173925 0.61711078 574.43166472 0.54151174 577.23242188 0.45898438 C590.23639305 0.31719234 590.23639305 0.31719234 595.65161133 3.81835938 C598.11775588 6.31522966 600.22953983 8.88377602 602.34375 11.6796875 C621.36545064 28.97489183 647.92753161 34.54873517 672.80615234 33.81152344 C693.24391767 32.7497192 713.12798578 23.88239058 728.76953125 10.9296875 C730.34375 9.6796875 730.34375 9.6796875 731.34375 9.6796875 C731.34375 175.0096875 731.34375 340.3396875 731.34375 510.6796875 C440.94375 510.6796875 150.54375 510.6796875 -148.65625 510.6796875 C-148.65625 345.0196875 -148.65625 179.3596875 -148.65625 8.6796875 C-146.01625 10.6596875 -143.37625 12.6396875 -140.65625 14.6796875 C-117.1122224 30.64970123 -91.05633007 36.84480071 -63.01391602 31.53051758 C-43.24528601 27.43211742 -23.72963533 17.34753982 -10.22424316 2.05856323 C-7.41715153 -0.4099619 -3.57909729 0.08253473 0 0 Z " fill="#59351F" transform="translate(908.65625,768.3203125)"/>
<path d="M0 0 C339.24 0 678.48 0 1028 0 C1028 86.13 1028 172.26 1028 261 C688.76 261 349.52 261 0 261 C0 174.87 0 88.74 0 0 Z " fill="#F8E542" transform="translate(686,300)"/>
<path d="M0 0 C6.16817895 -0.08930998 12.33639225 -0.16482438 18.5048726 -0.22993494 C19.76890535 -0.24332336 19.76890535 -0.24332336 21.05847411 -0.25698224 C24.38903457 -0.29186773 27.71959818 -0.32619032 31.05018472 -0.3584995 C40.38282218 -0.44906734 49.71152128 -0.58361723 59.04190088 -0.80990794 C65.29494277 -0.95741918 71.54634585 -1.02384152 77.80097274 -1.05915118 C80.29456391 -1.0869333 82.78804311 -1.14225572 85.28028659 -1.22880746 C105.5651922 -1.91535177 105.5651922 -1.91535177 114.03102414 5.92036169 C116.60966829 8.61940494 118.99482114 11.40675418 121.28580574 14.35310232 C125.68872103 19.9899868 130.54675092 25.20513589 135.63161782 30.22617601 C136.13781655 30.72858812 136.64401528 31.23100023 137.16555337 31.74863695 C138.75593632 33.32700313 140.34956227 34.90202611 141.94411782 36.47617601 C147.8335596 42.29025016 153.68135296 48.06654358 159.05739907 54.36680101 C163.45458928 59.28291429 168.2515135 63.8436233 172.94411782 68.47617601 C178.8335596 74.29025016 184.68135296 80.06654358 190.05739907 86.36680101 C194.45458928 91.28291429 199.2515135 95.8436233 203.94411782 100.47617601 C216.02346216 112.40094007 216.02346216 112.40094007 221.43288735 118.74228929 C224.2377204 121.96037077 227.31876033 124.89167754 230.37575845 127.86875414 C231.58173345 129.05465744 232.7653114 130.26326308 233.94411782 131.47617601 C233.94411782 131.80617601 233.94411782 132.13617601 233.94411782 132.47617601 C-191.09588218 132.47617601 -616.13588218 132.47617601 -1054.05588218 132.47617601 C-1052.07588218 130.16617601 -1050.09588218 127.85617601 -1048.05588218 125.47617601 C-1046.65510281 123.67176881 -1045.27226905 121.85324848 -1043.91010829 120.01951288 C-956.30508485 3.30519553 -956.30508485 3.30519553 -891.73507621 -6.69837454 C-874.26079603 -9.15281893 -856.77122093 -9.75447189 -839.14572593 -9.71913649 C-838.18701901 -9.71837324 -837.2283121 -9.71760999 -836.24055346 -9.71682362 C-811.68205657 -9.66795179 -787.20710366 -8.51428142 -762.70236631 -6.9718811 C-738.34026819 -5.44155351 -713.97743126 -4.77534368 -689.57715818 -4.18585893 C-679.13709259 -3.93058459 -668.69763276 -3.6513517 -658.25821372 -3.37106825 C-656.51305387 -3.32459421 -656.51305387 -3.32459421 -654.73263826 -3.2771813 C-636.79468895 -2.79614519 -618.86488377 -2.17481699 -600.93411704 -1.47797133 C-529.12696069 1.292066 -457.42477014 2.0468767 -385.57506266 1.67778202 C-382.23161909 1.66079424 -378.88817132 1.644679 -375.54472395 1.62846063 C-351.66562528 1.51194433 -327.78665405 1.375752 -303.90783282 1.21166109 C-269.58183081 0.97630701 -235.25669308 0.82131014 -200.92993171 0.75785594 C-197.27718798 0.75109799 -193.62444496 0.74402429 -189.97170194 0.73689483 C-166.55316507 0.69178163 -143.13463658 0.65975189 -119.71606066 0.64541339 C-109.77114273 0.63926066 -99.82622816 0.63027774 -89.88131402 0.61968868 C-87.72776654 0.61744374 -85.57421892 0.61533736 -83.42067117 0.61337166 C-55.61001479 0.58758053 -27.80770967 0.40744735 0 0 Z " fill="#464865" transform="translate(1610.055882178247,1346.5238239876926)"/>
<path d="M0 0 C3.00746607 1.50373304 3.09949139 3.68215442 4.1875 6.8125 C6.89305733 14.08318651 10.22311575 21.49389745 15.25217421 27.49393654 C19.15583077 32.27663399 19.71284323 35.91955557 19.61523914 41.98236752 C19.62100787 42.86872023 19.62677659 43.75507295 19.63272012 44.66828484 C19.64596078 47.64032786 19.62352648 50.61101905 19.60127258 53.58299255 C19.60345997 55.72873757 19.60784505 57.8744813 19.61424255 60.0202179 C19.62547074 65.93093698 19.60537271 71.84120421 19.58036365 77.75186591 C19.5585592 84.21817925 19.56583479 90.68447115 19.56945324 97.1508112 C19.57265843 108.28086137 19.55644468 119.41077529 19.52787781 130.54078674 C19.4870136 146.49014967 19.477363 162.43935218 19.47302246 178.38879395 C19.4467596 216.73839097 19.37695418 255.08794815 19.3125 293.4375 C19.209375 379.093125 19.10625 464.74875 19 553 C315.34 553 611.68 553 917 553 C916.60398832 382.5426893 916.60398832 382.5426893 916.09912109 212.08569336 C916.05395508 179.14562988 916.05395508 179.14562988 916.04556274 163.7334137 C916.03561776 152.24049799 915.99250467 140.7481882 915.93326573 129.25546303 C915.87364 117.52887452 915.8524381 105.80268954 915.8655505 94.07595542 C915.8715731 87.71426533 915.86204879 81.35368514 915.80784869 74.99219882 C915.75909348 69.23473554 915.75681968 63.47916417 915.79098892 57.72161293 C915.79521598 55.64493728 915.78264773 53.56814173 915.75117421 51.49170029 C915.56110445 38.16418972 917.34620138 30.05486597 925.79830761 19.63504715 C930.04136859 13.86185193 932.38355086 6.61380198 935 0 C936.81198437 2.71797656 938.01919275 5.33579198 939.25683594 8.34277344 C947.71349992 28.74721016 962.0677919 46.03389595 982 56 C982 237.17 982 418.34 982 605 C642.76 605 303.52 605 -46 605 C-46.309375 469.308125 -46.309375 469.308125 -46.625 330.875 C-46.71604004 302.26796387 -46.80708008 273.66092773 -46.90087891 244.18701172 C-46.94604492 209.36547852 -46.94604492 209.36547852 -46.95443726 193.08547974 C-46.96440435 180.91483694 -47.00759954 168.74474645 -47.06673427 156.57425889 C-47.1261852 144.17150459 -47.14838488 131.76910037 -47.1344495 119.36620886 C-47.12788772 112.63084201 -47.13822611 105.8966482 -47.19215131 99.16140723 C-47.24056836 93.07739001 -47.24340112 86.99516696 -47.20901108 80.91106987 C-47.20475078 78.7055294 -47.21760537 76.49987951 -47.24882579 74.2945559 C-47.46976587 57.7211364 -47.46976587 57.7211364 -43.79988551 53.4236052 C-41.21406993 51.84854253 -38.8769383 50.90284805 -36 50 C-17.98981371 37.11900336 -7.39411713 20.44255912 0 0 Z " fill="#2B2F48" transform="translate(732,734)"/>
<path d="M0 0 C58.74 0 117.48 0 178 0 C178 154.77 178 309.54 178 469 C119.26 469 60.52 469 0 469 C0 314.23 0 159.46 0 0 Z " fill="#FC1F1F" transform="translate(1485,1546)"/>
<path d="M0 0 C58.74 0 117.48 0 178 0 C178 154.77 178 309.54 178 469 C119.26 469 60.52 469 0 469 C0 314.23 0 159.46 0 0 Z " fill="#F9E743" transform="translate(1298,1546)"/>
<path d="M0 0 C58.74 0 117.48 0 178 0 C178 154.77 178 309.54 178 469 C119.26 469 60.52 469 0 469 C0 314.23 0 159.46 0 0 Z " fill="#FC1F1F" transform="translate(1111,1546)"/>
<path d="M0 0 C58.74 0 117.48 0 178 0 C178 154.77 178 309.54 178 469 C119.26 469 60.52 469 0 469 C0 314.23 0 159.46 0 0 Z " fill="#F9E743" transform="translate(924,1546)"/>
<path d="M0 0 C58.74 0 117.48 0 178 0 C178 154.77 178 309.54 178 469 C119.26 469 60.52 469 0 469 C0 314.23 0 159.46 0 0 Z " fill="#FC1F1F" transform="translate(737,1546)"/>
<path d="M0 0 C429 0 858 0 1300 0 C1300 16.5 1300 33 1300 50 C871 50 442 50 0 50 C0 33.5 0 17 0 0 Z " fill="#2B2F48" transform="translate(550,1487)"/>
<path d="M0 0 C37.95 0 75.9 0 115 0 C115 154.77 115 309.54 115 469 C77.05 469 39.1 469 0 469 C0 314.23 0 159.46 0 0 Z " fill="#F8E642" transform="translate(614,1546)"/>
<path d="M0 0 C37.62 0 75.24 0 114 0 C114 154.77 114 309.54 114 469 C76.38 469 38.76 469 0 469 C0 314.23 0 159.46 0 0 Z " fill="#F9E743" transform="translate(1672,1546)"/>
<path d="M0 0 C20.45298474 -0.02332725 40.90596679 -0.04097832 61.35896206 -0.05181217 C70.85495383 -0.0569755 80.35093735 -0.06401889 89.84692383 -0.07543945 C98.12052845 -0.08538517 106.39412711 -0.09185316 114.66773754 -0.09408849 C119.0513359 -0.09539579 123.43491716 -0.09848285 127.81851006 -0.10573006 C131.939635 -0.11248851 136.06073573 -0.11461732 140.18186569 -0.11310768 C141.69886341 -0.11338409 143.2158619 -0.11539025 144.73285484 -0.11920547 C146.79507301 -0.12414001 148.85719826 -0.1229992 150.91941833 -0.12025452 C152.07626853 -0.12117631 153.23311872 -0.1220981 154.42502499 -0.12304783 C157 0 157 0 158 1 C158.21575939 2.73967623 158.36713902 4.48737103 158.49316406 6.23583984 C158.61926308 7.93522705 158.61926308 7.93522705 158.74790955 9.66894531 C158.8804287 11.54598145 158.8804287 11.54598145 159.015625 13.4609375 C159.1630804 15.46291354 159.31054205 17.46488912 159.458251 19.46684647 C159.61621708 21.61782051 159.77208096 23.76893816 159.92739868 25.92010498 C160.46987852 33.42676588 161.02910476 40.93218417 161.58984375 48.4375 C161.64700247 49.20409313 161.70416119 49.97068626 161.76305199 50.76050949 C163.1896068 69.85714046 164.8185236 88.93533407 166.47558594 108.01318359 C166.5782225 109.20049072 166.68085907 110.38779785 166.78660583 111.61108398 C166.97783382 113.81989015 167.17065139 116.02855951 167.3653717 118.23706055 C167.44951828 119.20732178 167.53366486 120.17758301 167.62036133 121.17724609 C167.69410477 122.01742279 167.76784821 122.85759949 167.84382629 123.72323608 C167.98705152 125.81123178 168 127.90709783 168 130 C109.26 130 50.52 130 -10 130 C-8.83985334 112.59780015 -8.83985334 112.59780015 -8.203125 104.12109375 C-8.09854288 102.72597234 -8.09854288 102.72597234 -7.99184799 101.30266666 C-6.23746437 77.94205018 -4.42029799 54.58760346 -2.5276947 31.23784256 C-2.24047533 27.69249548 -1.95401747 24.14708686 -1.66748047 20.60168457 C-1.11236571 13.73439867 -0.55646254 6.86717682 0 0 Z " fill="#FB1F1E" transform="translate(1121,571)"/>
<path d="M0 0 C46.53 0 93.06 0 141 0 C145.49982929 11.24957323 145.49982929 11.24957323 146.97265625 15.38720703 C147.30893036 16.32886215 147.64520447 17.27051727 147.9916687 18.2407074 C148.52173019 19.73417442 148.52173019 19.73417442 149.0625 21.2578125 C149.4468924 22.33583633 149.83128479 23.41386017 150.22732544 24.52455139 C151.48662131 28.05741786 152.74327611 31.5912179 154 35.125 C154.87983366 37.59423242 155.75988265 40.06338812 156.64013672 42.5324707 C158.48208438 47.69952657 160.32296862 52.86696 162.16308594 58.03466797 C166.14703316 69.22247269 170.13633481 80.40836663 174.12863541 91.59319305 C175.66249313 95.89063483 177.19470536 100.18866117 178.7265625 104.48681641 C179.52859189 106.73471977 180.33067245 108.98260487 181.1328125 111.23046875 C181.49649933 112.25189468 181.86018616 113.27332062 182.2348938 114.32569885 C182.57132904 115.26775681 182.90776428 116.20981476 183.25439453 117.18041992 C183.54492706 117.99524338 183.83545959 118.81006683 184.13479614 119.64958191 C184.7499581 121.32073465 185.41348544 122.97442646 186.10910034 124.61372375 C187 127 187 127 187 130 C128.59 130 70.18 130 10 130 C8.35 109.66375 6.7 89.3275 5 68.375 C4.21689453 58.74642822 4.21689453 58.74642822 3.41796875 48.92333984 C2.78320312 41.0793457 2.78320312 41.0793457 2.48657227 37.40615845 C2.27912438 34.8430128 2.07090523 32.27994084 1.86157227 29.71694946 C1.54438934 25.83283396 1.23104652 21.94841349 0.91796875 18.06396484 C0.82428513 16.92387655 0.7306015 15.78378826 0.63407898 14.60915184 C0.55011368 13.55971712 0.46614838 12.5102824 0.37963867 11.42904663 C0.30589523 10.52015875 0.23215179 9.61127087 0.15617371 8.67484093 C-0.01239681 5.78767563 0 2.89208221 0 0 Z " fill="#F8E642" transform="translate(1287,571)"/>
<path d="M0 0 C46.53 0 93.06 0 141 0 C138.70029433 34.49558508 138.70029433 34.49558508 137.5625 48.45703125 C137.43544775 50.03576734 137.3085818 51.61451844 137.18188477 53.19328308 C136.85567723 57.2522929 136.52709158 61.31110625 136.19787598 65.36987305 C135.86743298 69.4489381 135.53926964 73.52818647 135.2109375 77.60742188 C134.8380056 82.23905392 134.4649053 86.8706716 134.09008789 91.50215149 C133.05172074 104.33411998 132.02663496 117.167063 131 130 C72.59 130 14.18 130 -46 130 C-43.98062141 122.59561185 -41.86761742 115.48105899 -39.25390625 108.30078125 C-38.89043091 107.29112305 -38.52695557 106.28146484 -38.15246582 105.24121094 C-36.95966492 101.93023605 -35.76108555 98.62138471 -34.5625 95.3125 C-33.29169684 91.79016346 -32.02234275 88.26730675 -30.7530365 84.74443054 C-29.86930554 82.29203228 -28.98507156 79.83981523 -28.10035706 77.38777161 C-24.85921715 68.40107916 -21.64207576 59.40603985 -18.4375 50.40625 C-17.98072153 49.12395243 -17.52392942 47.84165971 -17.06712341 46.55937195 C-15.29879982 41.59492629 -13.53091779 36.63032539 -11.76589966 31.66470337 C-10.54487755 28.23027876 -9.32147869 24.7967088 -8.09765625 21.36328125 C-7.74110962 20.35813477 -7.38456299 19.35298828 -7.01721191 18.31738281 C-6.67774536 17.36613525 -6.33827881 16.4148877 -5.98852539 15.43481445 C-5.69941788 14.62204544 -5.41031036 13.80927643 -5.11244202 12.97187805 C-3.48312382 8.61917029 -1.72609756 4.31524389 0 0 Z " fill="#F8E642" transform="translate(972,571)"/>
<path d="M0 0 C2.41348769 -0.0174402 4.82734933 -0.00133824 7.24053955 0.04037476 C8.55785568 0.0394986 9.87517181 0.03862244 11.23240662 0.03771973 C14.84205017 0.03599809 18.45049758 0.07127267 22.05986309 0.11316347 C25.83277509 0.15067084 29.60571451 0.15419578 33.37878418 0.16131592 C40.52231608 0.17996496 47.66529706 0.22920207 54.80858636 0.28941286 C62.94145732 0.35647676 71.07435459 0.38946657 79.20743322 0.41958547 C95.93656462 0.48230165 112.66514194 0.58783696 129.39385986 0.7215271 C128.92738341 2.29201852 128.45964526 3.86213521 127.99139404 5.43209839 C127.73106133 6.30649818 127.47072861 7.18089798 127.20250702 8.08179474 C125.96710952 12.11460279 124.58151337 16.08947869 123.17510986 20.0652771 C122.87375122 20.92157715 122.57239258 21.7778772 122.26190186 22.66012573 C118.58392553 33.07243827 114.7632277 43.43239823 110.94610596 53.79428101 C106.87389692 64.85582045 102.88979946 75.94247329 99.01446533 87.07455444 C96.78076242 93.49047465 94.49573922 99.88777399 92.20635986 106.2840271 C91.79450439 107.43709351 91.38264893 108.59015991 90.95831299 109.77816772 C88.45943944 116.76788533 85.93070277 123.74520911 83.39385986 130.7215271 C25.31385986 130.7215271 -32.76614014 130.7215271 -92.60614014 130.7215271 C-90.99342438 126.6897377 -89.88543785 124.52061108 -87.35614014 121.2215271 C-83.49324974 116.01802716 -79.87091094 110.68739297 -76.29364014 105.2840271 C-70.76008425 96.93737319 -65.17298194 88.62879204 -59.54364014 80.3465271 C-58.73854438 79.16171357 -57.93345 77.9768991 -57.12835693 76.79208374 C-55.89099443 74.97123722 -54.65357809 73.15042741 -53.41600037 71.32972717 C-48.63785854 64.29920726 -43.87221599 57.26022943 -39.10614014 50.2215271 C-33.80614801 42.39500351 -28.50456951 34.56956902 -23.19598389 26.74887085 C-22.75932404 26.10555817 -22.32266418 25.46224548 -21.87277222 24.79943848 C-19.79731912 21.74194385 -17.72150331 18.68469621 -15.64520264 15.6277771 C-14.90914795 14.54367554 -14.17309326 13.45957397 -13.41473389 12.34262085 C-12.45265015 10.92614258 -12.45265015 10.92614258 -11.47113037 9.48104858 C-9.50418648 6.76465396 -9.50418648 6.76465396 -8.29249573 3.59162903 C-5.14724931 0.2312482 -4.42375576 0.25625086 0 0 Z " fill="#FB1F1E" transform="translate(833.6061401367188,570.2784729003906)"/>
<path d="M0 0 C17.34158138 -0.51571162 34.68074716 -0.9027024 52.02826023 -1.13986778 C60.08485388 -1.2529593 68.1366649 -1.40685642 76.19018555 -1.65966797 C83.21656493 -1.88012943 90.23948192 -2.02113681 97.26922363 -2.06994689 C100.98804872 -2.09846188 104.69697865 -2.16450221 108.41259956 -2.32606125 C130.89977079 -3.26644171 130.89977079 -3.26644171 137.69702911 2.14858437 C142.38103959 7.34313511 145.6688841 13.11907591 148.69856453 19.39155388 C150.4576592 22.91727895 152.58952816 25.98349659 154.8828125 29.18359375 C156.29716164 31.2680347 157.71122458 33.35266988 159.125 35.4375 C159.91730656 36.60547631 160.70962468 37.77344478 161.50195312 38.94140625 C167.50516484 47.79165385 173.50280463 56.64567499 179.5 65.5 C185.9296209 74.99259491 192.35949492 84.48501719 198.79525757 93.97344971 C199.98283231 95.724684 201.16977541 97.47634522 202.35668945 99.22802734 C205.90807399 104.46624315 209.47230383 109.69478803 213.07421875 114.8984375 C213.68974609 115.78950195 214.30527344 116.68056641 214.93945312 117.59863281 C216.07075529 119.23364885 217.20592442 120.86599886 218.34570312 122.49511719 C219.07756836 123.55327637 219.07756836 123.55327637 219.82421875 124.6328125 C220.45976685 125.54377686 220.45976685 125.54377686 221.1081543 126.47314453 C222 128 222 128 222 130 C163.92 130 105.84 130 46 130 C39.46118124 112.01824842 32.95708531 94.08934564 26.76953125 75.99609375 C23.39546124 66.17369195 19.87771719 56.40206824 16.375 46.625 C4.37894521 13.13683564 4.37894521 13.13683564 0 0 Z " fill="#FB1F1E" transform="translate(1437,571)"/>
<path d="M0 0 C0.74257002 0.05189311 1.48514005 0.10378621 2.25021219 0.15725183 C21.29001545 1.513744 40.078541 3.97452483 58.8125 7.6875 C58.02509372 9.12400879 57.23532859 10.55922476 56.44458008 11.99389648 C56.00503494 12.79327133 55.56548981 13.59264618 55.11262512 14.41624451 C53.43307436 17.35033817 51.51348778 20.03554667 49.5 22.75 C44.994164 28.92990018 40.72539085 35.25069608 36.5 41.625 C30.25764225 51.03411764 23.96341742 60.40542937 17.625 69.75 C17.18633606 70.39691803 16.74767212 71.04383606 16.29571533 71.71035767 C13.59251595 75.69675258 10.8881706 79.68236882 8.18334961 83.66766357 C4.51743125 89.06909885 0.85248876 94.47119397 -2.81069946 99.8744812 C-4.05890822 101.71504352 -5.30809607 103.55493804 -6.55737305 105.39477539 C-7.11427448 106.222565 -7.11427448 106.222565 -7.68242645 107.06707764 C-8.49539268 108.25775208 -9.32359841 109.43827739 -10.1719532 110.604002 C-12.78237965 114.26590884 -14.69864944 117.78354955 -16.36613464 121.96522522 C-19.21314761 128.34756452 -22.34445599 133.6584463 -28.1875 137.6875 C-39.89077754 141.35435293 -52.83719549 140.2012346 -64.9446063 139.8167727 C-69.81130313 139.68465567 -74.67832601 139.67309659 -79.54653931 139.64823914 C-88.74614071 139.58320175 -97.94044356 139.41123309 -107.1377207 139.19989985 C-117.61593284 138.9644092 -128.09441088 138.84952681 -138.57461429 138.74429572 C-160.11519022 138.52532983 -181.65101024 138.15645028 -203.1875 137.6875 C-202.00759239 136.32890114 -202.00759239 136.32890114 -200.80384827 134.94285583 C-198.04755799 131.72840655 -195.36194792 128.46212126 -192.69139099 125.17616272 C-176.94184114 105.8208396 -160.55759385 87.07884224 -143.625 68.75 C-142.95560882 68.02359928 -142.28621764 67.29719855 -141.59654188 66.54878569 C-99.04453096 20.47148109 -64.16892177 -4.60363959 0 0 Z " fill="#F8E642" transform="translate(759.1875,563.3125)"/>
<path d="M0 0 C19.34933747 -4.06127488 38.73831129 -6.60632225 58.4375 -8.0625 C59.17263053 -8.11845888 59.90776107 -8.17441775 60.66516829 -8.23207235 C99.78458669 -11.12666821 130.93283058 -5.64534953 161.32133484 20.36863708 C177.05071259 34.16556777 191.6092171 49.0931184 205.8125 64.4375 C206.52668642 65.20714506 207.24087283 65.97679011 207.97670126 66.76975775 C262 125.05411167 262 125.05411167 262 130 C239.50377198 130.35083417 217.00799664 130.61512193 194.50958538 130.77718258 C184.06234328 130.85444093 173.61680346 130.95970908 163.1706543 131.1315918 C154.06266031 131.28138448 144.95589919 131.37793732 135.84670764 131.41132742 C131.02529227 131.43084013 126.20740276 131.47647688 121.3871212 131.58595085 C116.84279013 131.68831476 112.30341016 131.71907734 107.75803566 131.69661522 C106.0966097 131.7007191 104.43500662 131.7302649 102.77458191 131.78808212 C90.59318574 132.1911942 90.59318574 132.1911942 86.25581384 128.52619481 C82.99006757 124.93893878 80.43509508 120.9788255 78.02842677 116.7800914 C76.677414 114.4416398 75.15085272 112.24178643 73.6015625 110.03125 C72.60617399 108.52294093 71.61405327 107.01247088 70.625 105.5 C69.42951967 103.69065631 68.23282595 101.88211396 67.03515625 100.07421875 C66.39336426 99.10532715 65.75157227 98.13643555 65.09033203 97.13818359 C61.11651862 91.17235814 57.08714582 85.2440984 53.0625 79.3125 C52.16761832 77.99309957 51.2727618 76.67368209 50.37792969 75.35424805 C49.00045751 73.32321256 47.62294918 71.29220169 46.24526978 69.26130676 C42.89544702 64.32256634 39.5499931 59.38088672 36.20703125 54.4375 C35.72531464 53.72518219 35.24359802 53.01286438 34.74728394 52.27896118 C32.80889632 49.41243888 30.87065939 46.54581493 28.93286133 43.67889404 C23.74190782 35.99911813 18.54406154 28.32423941 13.32421875 20.6640625 C12.42721842 19.34661715 11.53024513 18.02915339 10.63330078 16.71166992 C8.95320582 14.24395396 7.27015419 11.77829098 5.58544922 9.3137207 C4.84697754 8.22921631 4.10850586 7.14471191 3.34765625 6.02734375 C2.69804932 5.07593506 2.04844238 4.12452637 1.37915039 3.14428711 C0 1 0 1 0 0 Z " fill="#F8E642" transform="translate(1582,571)"/>
<path d="M0 0 C24.42 0 48.84 0 74 0 C74.33 10.23 74.66 20.46 75 31 C82.32196088 23.67803912 76.65503105 10.34906849 77 0 C101.42 0 125.84 0 151 0 C151 10.56 151 21.12 151 32 C147.6175 31.773125 144.235 31.54625 140.75 31.3125 C124.88919724 31.2370569 114.22260322 40.35908934 102.22851562 49.57470703 C97.32890644 53.30782283 92.16553123 56.64917994 87 60 C91.1389957 65.11928416 95.61571887 69.45239033 100.55078125 73.8046875 C102.65118912 75.68734973 104.65190103 77.61126513 106.625 79.625 C109.61779049 82.67399313 112.78715298 85.45573403 116.0234375 88.2421875 C118.52009753 90.46253733 120.8497382 92.81825549 123.1640625 95.2265625 C123.76992187 95.81179688 124.37578125 96.39703125 125 97 C125.7425 97.87785156 126.485 98.75570312 127.25 99.66015625 C132.41339061 103.91236028 140.06585369 102.78458938 146.375 102.8125 C151.20125 102.874375 156.0275 102.93625 161 103 C161 113.56 161 124.12 161 135 C136.58 135 112.16 135 87 135 C87 124.11 87 113.22 87 102 C85.02 101.01 85.02 101.01 83 100 C81.47949219 98.69067383 81.47949219 98.69067383 80.046875 97.20703125 C79.24721313 96.38948364 79.24721313 96.38948364 78.43139648 95.55541992 C77.87653564 94.98025635 77.3216748 94.40509277 76.75 93.8125 C75.59146145 92.63642506 74.4313107 91.46193604 73.26953125 90.2890625 C72.70959473 89.72348633 72.1496582 89.15791016 71.57275391 88.57519531 C69.56745849 86.56678705 67.5311503 84.60372231 65.4375 82.6875 C64.85871094 82.15511719 64.27992187 81.62273437 63.68359375 81.07421875 C61.77084002 79.64140827 61.77084002 79.64140827 58 80 C54.81345218 81.61399973 54.81345218 81.61399973 54.56762695 84.15478516 C54.54144287 85.02409668 54.51525879 85.8934082 54.48828125 86.7890625 C54.45283203 87.73007812 54.41738281 88.67109375 54.38085938 89.640625 C54.35830078 90.62546875 54.33574219 91.6103125 54.3125 92.625 C54.27833984 93.61757813 54.24417969 94.61015625 54.20898438 95.6328125 C54.12635318 98.08813947 54.06150472 100.54405301 54 103 C60.6 103 67.2 103 74 103 C74 113.56 74 124.12 74 135 C49.58 135 25.16 135 0 135 C0 124.44 0 113.88 0 103 C6.6 103 13.2 103 20 103 C20 79.57 20 56.14 20 32 C13.4 32 6.8 32 0 32 C0 21.44 0 10.88 0 0 Z " fill="#502A03" transform="translate(1163,363)"/>
<path d="M0 0 C49.5 0 99 0 150 0 C150 16.17 150 32.34 150 49 C139.44 49 128.88 49 118 49 C118 43.39 118 37.78 118 32 C97.21 32 76.42 32 55 32 C55 38.27 55 44.54 55 51 C73.15 51 91.3 51 110 51 C110 61.23 110 71.46 110 82 C91.85 82 73.7 82 55 82 C55 88.93 55 95.86 55 103 C75.79 103 96.58 103 118 103 C118 97.39 118 91.78 118 86 C128.56 86 139.12 86 150 86 C150 102.17 150 118.34 150 135 C100.5 135 51 135 0 135 C0 124.44 0 113.88 0 103 C6.93 103 13.86 103 21 103 C21 96.07 21 89.14 21 82 C16.71 82 12.42 82 8 82 C8 71.77 8 61.54 8 51 C13.94 50.505 13.94 50.505 20 50 C20.33 44.06 20.66 38.12 21 32 C14.07 32 7.14 32 0 32 C0 21.44 0 10.88 0 0 Z " fill="#522903" transform="translate(1336,363)"/>
<path d="M0 0 C0.33 -1.98 0.66 -3.96 1 -6 C11.89 -6 22.78 -6 34 -6 C34 13.47 34 32.94 34 53 C23.77 53 13.54 53 3 53 C1.94553693 49.8366108 0.91110918 46.66221488 0.0625 43.4375 C-2.04832945 36.60834591 -5.05677338 33.80655886 -11.171875 30.42578125 C-12.10515625 29.95527344 -13.0384375 29.48476563 -14 29 C-14.83015625 28.58105469 -15.6603125 28.16210938 -16.515625 27.73046875 C-28.28220169 22.86213366 -44.46906137 22.80461736 -56.4375 27.125 C-66.35732904 31.78470917 -72.64516013 37.84946024 -77.875 47.4375 C-80.93571495 56.71128304 -80.12225005 68.77899729 -76.24609375 77.64453125 C-70.85050587 87.84371461 -62.61149916 93.92552665 -51.59887695 97.40893555 C-39.75815813 100.10187874 -23.66053493 100.05994742 -12.61328125 94.6484375 C-1.75718861 87.80049864 3.03919255 79.4622743 8 68 C8.29277832 67.32356445 8.58555664 66.64712891 8.88720703 65.95019531 C9.59607706 64.30210358 10.29871872 62.65133511 11 61 C16.92244472 62.21789715 22.2680472 65.29084998 27.6875 67.875 C29.43643555 68.68904297 29.43643555 68.68904297 31.22070312 69.51953125 C32.32736328 70.04675781 33.43402344 70.57398438 34.57421875 71.1171875 C35.59088623 71.59784668 36.60755371 72.07850586 37.6550293 72.57373047 C40 74 40 74 41 77 C40.2391603 79.44238427 39.41842467 81.71043411 38.4375 84.0625 C38.16010986 84.73498779 37.88271973 85.40747559 37.59692383 86.1003418 C29.9928838 104.08702804 17.16433866 117.54111433 -1 125 C-25.34977042 133.57070531 -52.44002003 134.20017048 -76.265625 123.40625 C-94.80414888 113.872152 -106.71540021 100.12795054 -113.421875 80.3984375 C-117.92045906 61.73539283 -114.94942952 43.25322098 -106.11328125 26.39453125 C-96.41392845 10.81460965 -80.33722223 -0.785547 -62.58984375 -5.4453125 C-41.07772184 -10.05273529 -20.16537362 -9.31471804 0 0 Z " fill="#4F2802" transform="translate(1116,369)"/>
<path d="M0 0 C58.74 0 117.48 0 178 0 C178 19.0771764 171.20824095 37.30911303 159 52 C158.2884375 52.86238281 157.576875 53.72476563 156.84375 54.61328125 C142.86704722 70.8292093 122.61247832 82.91438438 101 85 C75.75053347 86.19545537 52.90737871 82.73235819 33 66 C32.14019531 65.28972656 31.28039063 64.57945312 30.39453125 63.84765625 C14.58031867 50.23451411 2.1470849 30.11834256 0 9 C0 6.03 0 3.06 0 0 Z " fill="#FA1F1E" transform="translate(1111,709)"/>
<path d="M0 0 C58.74 0 117.48 0 178 0 C178 23.91541277 167.38855312 44.13238067 151.0625 61.25 C132.11786275 79.49023782 107.97074261 85.57701931 82.36328125 85.27734375 C59.66214293 84.60424612 38.57472786 73.17375586 23 57 C12.86659282 45.25677061 5.79974829 32.01900509 2 17 C1.77570312 16.16597656 1.55140625 15.33195313 1.3203125 14.47265625 C0.02907849 9.29887614 0 5.67207527 0 0 Z " fill="#FA1F1E" transform="translate(737,709)"/>
<path d="M0 0 C58.74 0 117.48 0 178 0 C178 22.48636318 167.63392648 44.08285021 152 60 C133.23482258 78.16245484 111.01727423 85.57576505 85.34326172 85.41723633 C61.06931215 84.83701901 39.97318667 74.31688048 23 57 C13.12760172 45.85229191 5.30993828 32.63341133 2 18 C1.79761719 17.15953125 1.59523438 16.3190625 1.38671875 15.453125 C0.17053125 9.99269131 0 5.82720372 0 0 Z " fill="#F7E542" transform="translate(1298,709)"/>
<path d="M0 0 C58.74 0 117.48 0 178 0 C178 5.83232598 177.75798196 10.28280873 176.3125 15.75 C176.13243408 16.44319336 175.95236816 17.13638672 175.7668457 17.85058594 C169.5655404 40.83329625 155.61131206 60.5981006 135.25292969 73.0703125 C114.09224675 85.20992507 88.97748633 88.71401355 65.2109375 82.97265625 C42.4646413 76.08235485 23.18179971 61.40203854 11 41 C3.88191377 27.64766973 0 15.14911818 0 0 Z " fill="#FA1F1E" transform="translate(1485,709)"/>
<path d="M0 0 C58.74 0 117.48 0 178 0 C178 19.34108975 171.49497129 37.13406642 159 52 C157.93458984 53.28970703 157.93458984 53.28970703 156.84765625 54.60546875 C142.87086359 70.84212947 122.61677572 82.89386875 101 85 C72.7834745 86.39602 49.40046455 80.93246758 27.875 61.875 C13.03176686 48.12689757 2.55905142 28.09608024 0 8 C0 5.36 0 2.72 0 0 Z " fill="#F7E542" transform="translate(924,709)"/>
<path d="M0 0 C58.74 0 117.48 0 178 0 C178 7.97941773 177.81407182 13.47490859 175.5 20.75 C175.23300293 21.60835449 174.96600586 22.46670898 174.69091797 23.35107422 C170.69126936 35.63326185 164.69999243 46.38684043 156 56 C154.98679687 57.13501953 154.98679687 57.13501953 153.953125 58.29296875 C138.97603669 74.17196202 117.41206608 84.50807877 95.5078125 85.23828125 C71.67417371 85.65336463 52.18402756 80.62133993 33 66 C32.27296875 65.45859375 31.5459375 64.9171875 30.796875 64.359375 C14.20775608 51.00715733 2.31028095 28.03571598 0 7 C0 4.69 0 2.38 0 0 Z " fill="#F7E542" transform="translate(550,709)"/>
<path d="M0 0 C58.74 0 117.48 0 178 0 C176.16762069 23.82093102 167.22801147 46.02631895 149.296875 62.48046875 C127.80556656 80.39989772 104.74900921 86.61811265 77 85 C54.22299272 82.60677952 33.70360341 70.32138305 19 53 C15.67941922 48.52645825 12.81050283 43.80523347 10 39 C9.50628906 38.18015625 9.01257812 37.3603125 8.50390625 36.515625 C5.61112723 31.28879687 3.85940176 25.77149036 2.1875 20.0625 C1.96803711 19.33514648 1.74857422 18.60779297 1.52246094 17.85839844 C-0.23609503 11.46339121 0 7.09588763 0 0 Z " fill="#F7E542" transform="translate(1672,709)"/>
<path d="M0 0 C47.19 0 94.38 0 143 0 C143 18.48 143 36.96 143 56 C132.44 56 121.88 56 111 56 C111 47.75 111 39.5 111 31 C103.41 31 95.82 31 88 31 C88 54.43 88 77.86 88 102 C94.6 102 101.2 102 108 102 C108 112.23 108 122.46 108 133 C83.58 133 59.16 133 34 133 C34 122.77 34 112.54 34 102 C40.93 102 47.86 102 55 102 C55 78.57 55 55.14 55 31 C47.08 31 39.16 31 31 31 C31 39.25 31 47.5 31 56 C20.77 56 10.54 56 0 56 C0 37.52 0 19.04 0 0 Z " fill="#4E2602" transform="translate(759,364)"/>
<path d="M0 0 C47.19 0 94.38 0 143 0 C143 18.48 143 36.96 143 56 C132.77 56 122.54 56 112 56 C112 47.75 112 39.5 112 31 C104.08 31 96.16 31 88 31 C88 54.43 88 77.86 88 102 C94.6 102 101.2 102 108 102 C108 112.23 108 122.46 108 133 C83.91 133 59.82 133 35 133 C35 122.77 35 112.54 35 102 C41.6 102 48.2 102 55 102 C55 78.57 55 55.14 55 31 C47.41 31 39.82 31 32 31 C32 39.25 32 47.5 32 56 C21.44 56 10.88 56 0 56 C0 37.52 0 19.04 0 0 Z " fill="#4E2602" transform="translate(1498,364)"/>
<path d="M0 0 C19.14 0 38.28 0 58 0 C58 4.62 58 9.24 58 14 C51.4 14 44.8 14 38 14 C38 26.21 38 38.42 38 51 C44.10162953 46.98004265 50.20315981 42.95993546 56.30444336 38.93945312 C58.3769772 37.57380626 60.44956745 36.208245 62.5222168 34.84277344 C65.5136602 32.87197398 68.50489581 30.90085949 71.49609375 28.9296875 C72.41208847 28.32631561 73.32808319 27.72294373 74.27183533 27.10128784 C79.85971539 23.41839959 85.43464061 19.7168385 91 16 C86.71 15.67 82.42 15.34 78 15 C78 10.05 78 5.1 78 0 C96.81 0 115.62 0 135 0 C135 4.95 135 9.9 135 15 C133.906875 14.8865625 132.81375 14.773125 131.6875 14.65625 C115.14282394 13.79714013 104.7476988 22.44917224 92 32 C89.99216201 33.44344899 87.97393438 34.8708183 85.95288086 36.2956543 C84.31652895 37.45294806 82.69310792 38.62845986 81.0703125 39.8046875 C76.13370314 43.334426 71.07471723 46.67262131 66 50 C70.17756437 55.03878533 74.56103813 59.57215613 79.375 64 C80.79827642 65.32150761 82.22145061 66.64312532 83.64453125 67.96484375 C84.36721191 68.63370605 85.08989258 69.30256836 85.83447266 69.99169922 C89.25809899 73.16675561 92.6593216 76.36556216 96.0625 79.5625 C102.16289345 85.28459204 108.2744142 90.99468592 114.39282227 96.69750977 C118.89863439 100.89863439 118.89863439 100.89863439 120 102 C121.85174706 102.15786308 123.7090911 102.25107356 125.56640625 102.31640625 C126.69111328 102.35830078 127.81582031 102.40019531 128.97460938 102.44335938 C130.15861328 102.48267578 131.34261719 102.52199219 132.5625 102.5625 C133.75037109 102.60568359 134.93824219 102.64886719 136.16210938 102.69335938 C139.10792197 102.79983453 142.05394502 102.90045681 145 103 C145 107.62 145 112.24 145 117 C125.86 117 106.72 117 87 117 C87 112.05 87 107.1 87 102 C90.63 101.67 94.26 101.34 98 101 C92.82058406 95.72506205 87.61504565 90.5822825 81.99609375 85.77734375 C78.9347036 83.05144841 76.10034836 80.10858642 73.22265625 77.19140625 C70.57930025 74.58521518 67.80848964 72.17489163 64.9765625 69.77734375 C62.09348388 67.1848521 59.52721445 64.30649883 56.95703125 61.40625 C55.09064228 59.7326547 55.09064228 59.7326547 52.73632812 60.25952148 C47.2124268 61.75434596 42.85584871 63.66086998 39 68 C37.47275781 73.99581157 37.63828743 79.78871329 37.8125 85.9375 C37.81946506 87.59178337 37.8214668 89.24609552 37.81835938 90.90039062 C37.81228576 94.93934282 37.90836519 98.95741333 38 103 C44.6 103 51.2 103 58 103 C58 107.62 58 112.24 58 117 C38.86 117 19.72 117 0 117 C0 112.38 0 107.76 0 103 C6.6 103 13.2 103 20 103 C20 73.96 20 44.92 20 15 C13.4 15 6.8 15 0 15 C0 10.05 0 5.1 0 0 Z " fill="#F81F1E" transform="translate(1171,372)"/>
<path d="M0 0 C44.22 0 88.44 0 134 0 C134 10.56 134 21.12 134 32 C128.72 32 123.44 32 118 32 C118 26.06 118 20.12 118 14 C91.93 14 65.86 14 39 14 C39 25.88 39 37.76 39 50 C57.15 50 75.3 50 94 50 C94 54.62 94 59.24 94 64 C75.85 64 57.7 64 39 64 C39 76.87 39 89.74 39 103 C65.07 103 91.14 103 118 103 C118 97.06 118 91.12 118 85 C123.28 85 128.56 85 134 85 C134 95.56 134 106.12 134 117 C89.78 117 45.56 117 0 117 C0 112.38 0 107.76 0 103 C6.93 103 13.86 103 21 103 C21 90.46 21 77.92 21 65 C16.71 65 12.42 65 8 65 C8 60.05 8 55.1 8 50 C12.29 50 16.58 50 21 50 C21 38.12 21 26.24 21 14 C14.07 14 7.14 14 0 14 C0 9.38 0 4.76 0 0 Z " fill="#FA1F1E" transform="translate(1344,372)"/>
<path d="M0 0 C24.09 0 48.18 0 73 0 C73 10.23 73 20.46 73 31 C66.4 31 59.8 31 53 31 C53 54.43 53 77.86 53 102 C59.6 102 66.2 102 73 102 C73 112.23 73 122.46 73 133 C48.91 133 24.82 133 0 133 C0 122.77 0 112.54 0 102 C6.6 102 13.2 102 20 102 C20 78.57 20 55.14 20 31 C13.4 31 6.8 31 0 31 C0 20.77 0 10.54 0 0 Z " fill="#4F2502" transform="translate(916,364)"/>
<path d="M0 0 C0.33 -3.63 0.66 -7.26 1 -11 C6.28 -11 11.56 -11 17 -11 C17 2.86 17 16.72 17 31 C12.05 31 7.1 31 2 31 C1.319375 29.164375 0.63875 27.32875 -0.0625 25.4375 C-4.58816492 14.73933098 -11.42330102 10.36398876 -22 6 C-37.38754391 0.03340134 -53.78589773 0.03076447 -69.08203125 6.25390625 C-81.53424517 12.00228676 -88.42864354 19.46444797 -94 32 C-97.32338324 43.10618953 -96.42105328 57.86992238 -91.53515625 68.30859375 C-84.81869057 80.08377149 -74.21080012 87.93207567 -61.04443359 91.53515625 C-55.62067698 92.8548624 -50.44982938 93.38663726 -44.875 93.375 C-44.05604248 93.37338867 -43.23708496 93.37177734 -42.39331055 93.37011719 C-28.40647729 93.09306951 -15.51590889 88.91699237 -5.171875 79.33984375 C0.5658995 73.15832051 4.42542769 65.57809329 8 58 C12.62 60.31 17.24 62.62 22 65 C19.87824954 77.73050275 12.25317058 88.32977491 2 96 C-17.75104309 108.5581259 -41.84879519 111.08375584 -64.7421875 107.38671875 C-68.33631098 106.50944345 -71.58829605 105.42759243 -75 104 C-75.6506543 103.73155273 -76.30130859 103.46310547 -76.97167969 103.18652344 C-91.9675254 96.83807117 -103.61694189 87.39119036 -110.2421875 72.140625 C-111.26088937 69.44887262 -112.15645619 66.75105493 -113 64 C-113.4125 62.7625 -113.825 61.525 -114.25 60.25 C-117.49588333 45.7320491 -114.31974395 29.2129223 -106.765625 16.52734375 C-103.57379069 11.95850128 -99.9247145 7.94566494 -96 4 C-95.22269531 3.17048828 -95.22269531 3.17048828 -94.4296875 2.32421875 C-70.18391336 -21.22337865 -26.28632343 -17.52421562 0 0 Z " fill="#F91F1E" transform="translate(1124,383)"/>
<path d="M0 0 C41.58 0 83.16 0 126 0 C126 13.2 126 26.4 126 40 C121.05 40 116.1 40 111 40 C111 31.42 111 22.84 111 14 C97.8 14 84.6 14 71 14 C71 43.37 71 72.74 71 103 C77.6 103 84.2 103 91 103 C91 107.62 91 112.24 91 117 C72.19 117 53.38 117 34 117 C34 112.38 34 107.76 34 103 C40.6 103 47.2 103 54 103 C54 73.96 54 44.92 54 15 C41.13 15 28.26 15 15 15 C15 23.25 15 31.5 15 40 C10.05 40 5.1 40 0 40 C0 26.8 0 13.6 0 0 Z " fill="#FA1F1E" transform="translate(1507,372)"/>
<path d="M0 0 C41.58 0 83.16 0 126 0 C126 13.2 126 26.4 126 40 C121.05 40 116.1 40 111 40 C111 31.75 111 23.5 111 15 C98.13 15 85.26 15 72 15 C72 44.04 72 73.08 72 103 C78.6 103 85.2 103 92 103 C92 107.62 92 112.24 92 117 C73.19 117 54.38 117 35 117 C35 112.38 35 107.76 35 103 C41.6 103 48.2 103 55 103 C55 73.63 55 44.26 55 14 C41.8 14 28.6 14 15 14 C15 22.58 15 31.16 15 40 C10.05 40 5.1 40 0 40 C0 26.8 0 13.6 0 0 Z " fill="#FA1F1E" transform="translate(767,372)"/>
<path d="M0 0 C290.07 0 580.14 0 879 0 C879 1.32 879 2.64 879 4 C588.93 4 298.86 4 0 4 C0 2.68 0 1.36 0 0 Z " fill="#FFFFFF" transform="translate(1521,2323)"/>
<path d="M0 0 C276.21 0 552.42 0 837 0 C837 1.32 837 2.64 837 4 C560.79 4 284.58 4 0 4 C0 2.68 0 1.36 0 0 Z " fill="#FEFEFE" transform="translate(851,2098)"/>
<path d="M0 0 C18.81 0 37.62 0 57 0 C57 4.62 57 9.24 57 14 C50.4 14 43.8 14 37 14 C37 43.37 37 72.74 37 103 C43.6 103 50.2 103 57 103 C57 107.62 57 112.24 57 117 C38.19 117 19.38 117 0 117 C0 112.38 0 107.76 0 103 C6.6 103 13.2 103 20 103 C20 73.63 20 44.26 20 14 C13.4 14 6.8 14 0 14 C0 9.38 0 4.76 0 0 Z " fill="#FC1F1F" transform="translate(924,372)"/>
<path d="M0 0 C175.23 0 350.46 0 531 0 C531 1.32 531 2.64 531 4 C355.77 4 180.54 4 0 4 C0 2.68 0 1.36 0 0 Z " fill="#FEFEFE" transform="translate(367,2244)"/>
<path d="M0 0 C96.36 0 192.72 0 292 0 C292 1.65 292 3.3 292 5 C195.64 5 99.28 5 0 5 C0 3.35 0 1.7 0 0 Z " fill="#EAEBF1" transform="translate(1829,2207)"/>
<path d="M0 0 C96.36 0 192.72 0 292 0 C292 1.32 292 2.64 292 4 C195.64 4 99.28 4 0 4 C0 2.68 0 1.36 0 0 Z " fill="#FEFEFE" transform="translate(0,2323)"/>
<path d="M0 0 C94.71 0 189.42 0 287 0 C287 1.32 287 2.64 287 4 C192.29 4 97.58 4 0 4 C0 2.68 0 1.36 0 0 Z " fill="#FFFFFF" transform="translate(117,2152)"/>
<path d="M0 0 C79.86 0 159.72 0 242 0 C242 1.32 242 2.64 242 4 C162.14 4 82.28 4 0 4 C0 2.68 0 1.36 0 0 Z " fill="#FEFEFE" transform="translate(2037,2123)"/>
<path d="M0 0 C2.36124639 2.36124639 3.03813714 4.33109154 4.25 7.4375 C6.42180914 12.81191725 8.97446782 17.79945289 11.86328125 22.8203125 C13 25 13 25 13 27 C4.42 27 -4.16 27 -13 27 C-11.1746875 23.65875 -11.1746875 23.65875 -9.3125 20.25 C-5.75300005 13.65400794 -2.7091958 6.99441417 0 0 Z " fill="#2B2F46" transform="translate(1293,734)"/>
<path d="M0 0 C2.36124639 2.36124639 3.03813714 4.33109154 4.25 7.4375 C6.73369078 13.56541564 9.74581539 19.25368666 13 25 C13.33 25.66 13.66 26.32 14 27 C5.42 27 -3.16 27 -12 27 C-10.76498007 23.91245017 -9.54867933 20.95435851 -8.125 17.96875 C-7.60679688 16.87626953 -7.60679688 16.87626953 -7.078125 15.76171875 C-6.359375 14.25390625 -5.640625 12.74609375 -4.921875 11.23828125 C-3.16325454 7.53074184 -1.46200924 3.83777426 0 0 Z " fill="#2B2F46" transform="translate(1106,734)"/>
<path d="M0 0 C2.64273359 2.64273359 3.52765113 5.6930683 4.8125 9.125 C7.02443806 14.88111283 9.56852937 19.85279406 13 25 C13 25.66 13 26.32 13 27 C4.42 27 -4.16 27 -13 27 C-11.1746875 23.65875 -11.1746875 23.65875 -9.3125 20.25 C-5.75300005 13.65400794 -2.7091958 6.99441417 0 0 Z " fill="#2B2F46" transform="translate(1480,734)"/>
<path d="M0 0 C3.18666498 3.18666498 4.45522798 7.50621883 6.16992188 11.61914062 C8.47337891 17.03813821 11.09591325 21.77264385 14 27 C5.42 27 -3.16 27 -12 27 C-10.3600304 22.900076 -8.57241625 19.10791728 -6.5625 15.1875 C-4.0382618 10.21723393 -1.79543434 5.28068923 0 0 Z " fill="#2B2F46" transform="translate(919,734)"/>
<path d="M0 0 C6.27 0 12.54 0 19 0 C14.49662832 4.50337168 14.49662832 4.50337168 11.58203125 6.359375 C10.96779297 6.75253906 10.35355469 7.14570313 9.72070312 7.55078125 C9.09099609 7.94652344 8.46128906 8.34226562 7.8125 8.75 C7.17119141 9.16121094 6.52988281 9.57242187 5.86914062 9.99609375 C1.14372664 13 1.14372664 13 0 13 C0 8.71 0 4.42 0 0 Z " fill="#F5E341" transform="translate(1217,395)"/>
</svg>
